<svg width="9" height="6" viewBox="0 0 9 6" fill="none" xmlns="http://www.w3.org/2000/svg">
<path fill-rule="evenodd" clip-rule="evenodd" d="M8.20263 5.3157C7.94439 5.51259 7.57544 5.46286 7.37855 5.20462L4.44462 1.35651C4.37158 1.30816 4.26493 1.30816 4.19188 1.35651L1.25795 5.20462C1.06107 5.46286 0.692114 5.51259 0.433878 5.3157C0.175641 5.11881 0.125909 4.74986 0.322797 4.49163L3.26685 0.63024C3.30121 0.58518 3.3532 0.522818 3.42521 0.463149C3.93831 0.0379996 4.6982 0.0379996 5.2113 0.463149C5.28331 0.522818 5.3353 0.58518 5.36966 0.63024L8.31371 4.49163C8.5106 4.74986 8.46087 5.11881 8.20263 5.3157Z" fill="#3C4242"/>
</svg>
